<svg xmlns="http://www.w3.org/2000/svg" version="1.1" xmlns:xlink="http://www.w3.org/1999/xlink" xmlns:svgjs="http://svgjs.dev/svgjs" width="1000" height="1000"><g clip-path="url(#SvgjsClipPath1179)"><rect width="1000" height="1000" fill="#f94141"></rect><g transform="matrix(27.359781121751027,0,0,27.359781121751027,264.02188782489736,200)"><svg xmlns="http://www.w3.org/2000/svg" version="1.1" xmlns:xlink="http://www.w3.org/1999/xlink" xmlns:svgjs="http://svgjs.dev/svgjs" width="17.25" height="21.93"><svg id="Layer_1" data-name="Layer 1" xmlns="http://www.w3.org/2000/svg" viewBox="0 0 17.25 21.93"><defs><style>.cls-1{fill:#fff;}</style><clipPath id="SvgjsClipPath1179"><rect width="1000" height="1000" x="0" y="0" rx="300" ry="300"></rect></clipPath></defs><title>ÍCONE SITE</title><path class="cls-1" d="M.18,16.2a5.46,5.46,0,0,0,.07,3.07A6.12,6.12,0,0,0,1.51,21a3.81,3.81,0,0,0,1.36.77A5.7,5.7,0,0,0,4.56,22a2.76,2.76,0,0,0,1.21-.29,5.26,5.26,0,0,0,1.14-.76,8.47,8.47,0,0,0,1-1.05,13.1,13.1,0,0,0,.89-1.22,20.12,20.12,0,0,0,1.36-2.45l.16.1A3.46,3.46,0,0,0,14,15l3.23-5.25s.16-.38-.39-.75a.88.88,0,0,0-.92-.07l-2.84,4.61-1-.64,2.84-4.61a.69.69,0,0,0-.28-.66.78.78,0,0,0-.83,0l-2.84,4.6-1-.64L12.74,7a1,1,0,0,0-.48-.77,1.39,1.39,0,0,0-.94-.12L8.08,11.33a3.43,3.43,0,0,0,.38,3.74c-.27.38-.53.73-.79,1.06s-.45.57-.7.85a9.73,9.73,0,0,1-.71.72,3.72,3.72,0,0,1-.67.51A1.13,1.13,0,0,1,5,18.4c-.33,0-.5-.23-.51-.7a7.7,7.7,0,0,1,.29-1.85c.2-.77.48-1.63.82-2.6s.71-2,1.09-3h1a.92.92,0,0,0,.66-.3,2.29,2.29,0,0,0,.46-.67A1.4,1.4,0,0,0,9,8.6a.3.3,0,0,0-.33-.31H7.45c.42-1.16.79-2.21,1.1-3.17A8.2,8.2,0,0,0,9,2.94a2.57,2.57,0,0,0-.27-1.19A3.73,3.73,0,0,0,8.08.83,2.8,2.8,0,0,0,7.27.24,1.67,1.67,0,0,0,6.55,0a.39.39,0,0,0-.44.44A4.33,4.33,0,0,1,5.85,1.8c-.17.54-.4,1.15-.68,1.83s-.6,1.41-1,2.2L3.13,8.29H1.41a1,1,0,0,0-.76.31,1.65,1.65,0,0,0-.41.69,1.09,1.09,0,0,0,0,.67.48.48,0,0,0,.52.3H2.29c-.57,1.37-1,2.7-1.45,4,0,.1-.65,1.84-.66,1.95" transform="translate(0 -0.03)"></path></svg></svg></g></g></svg>