<svg width="9" height="8" viewBox="0 0 11 8" fill="none" xmlns="http://www.w3.org/2000/svg">
<path fill-rule="evenodd" clip-rule="evenodd" d="M9.88164 0.401745C10.0104 0.530652 10.0827 0.705391 10.0827 0.887579C10.0827 1.06977 10.0104 1.24451 9.88164 1.37341L4.29273 6.96233C4.2282 7.02679 4.1515 7.07776 4.06709 7.11229C3.98268 7.14681 3.89224 7.1642 3.80104 7.16343C3.70984 7.16266 3.61971 7.14376 3.53589 7.10781C3.45207 7.07187 3.37624 7.01961 3.31281 6.95408L1.11006 4.67708C0.984438 4.54582 0.915884 4.37017 0.919378 4.18851C0.922871 4.00686 0.998128 3.83398 1.1287 3.70764C1.25928 3.58131 1.43455 3.5118 1.61622 3.5143C1.79789 3.5168 1.97118 3.59111 2.09823 3.721L3.81514 5.49566L8.90998 0.401745C9.03888 0.272999 9.21362 0.200684 9.39581 0.200684C9.578 0.200684 9.75274 0.272999 9.88164 0.401745Z" fill="white"/>
</svg>
